<mxfile host="app.diagrams.net" modified="2023-07-12T07:52:39.885Z" agent="Mozilla/5.0 (Windows NT 10.0; Win64; x64) AppleWebKit/537.36 (KHTML, like Gecko) Chrome/114.0.0.0 Safari/537.36" version="21.6.1" etag="sVRXHYH7m5KlZfeSloyO" type="github">
  <diagram name="Trang-1" id="2VSC4bw6ed1LaMDAB639">
    <mxGraphModel>
      <root>
        <mxCell id="0" />
        <mxCell id="1" parent="0" />
      </root>
    </mxGraphModel>
  </diagram>
</mxfile>
